<svg xmlns="http://www.w3.org/2000/svg">
  <symbol id="icon-instagram" viewBox="0 0 24 24">
    <rect x="3" y="3" width="18" height="18" rx="5" fill="none" stroke="currentColor" stroke-width="1.8"/>
    <circle cx="12" cy="12" r="4" fill="none" stroke="currentColor" stroke-width="1.8"/>
    <circle cx="17.4" cy="6.6" r="1.1" fill="currentColor"/>
  </symbol>
  <symbol id="icon-facebook" viewBox="0 0 24 24">
    <path d="M14 8h3V4h-3c-3.2 0-5 1.9-5 5v3H6v4h3v5h4v-5h3.1l.7-4H13V9.3c0-.9.3-1.3 1-1.3Z" fill="currentColor"/>
  </symbol>
  <symbol id="icon-youtube" viewBox="0 0 24 24">
    <path d="M21 8.2a4 4 0 0 0-.7-1.8 2.5 2.5 0 0 0-1.8-.8C16 5.4 12 5.4 12 5.4s-4 0-6.5.2a2.5 2.5 0 0 0-1.8.8A4 4 0 0 0 3 8.2a28 28 0 0 0-.2 3.8A28 28 0 0 0 3 15.8a4 4 0 0 0 .7 1.8 3 3 0 0 0 2 .8c2.4.2 6.3.2 6.3.2s4 0 6.5-.2a2.5 2.5 0 0 0 1.8-.8 4 4 0 0 0 .7-1.8 28 28 0 0 0 .2-3.8 28 28 0 0 0-.2-3.8ZM10.2 15.1V8.9l5.5 3.1-5.5 3.1Z" fill="currentColor"/>
  </symbol>
  <symbol id="icon-tiktok" viewBox="0 0 24 24">
    <path d="M16.2 3c.4 2.5 1.8 4 4.3 4.2v3.5a8 8 0 0 1-4.2-1.2v5.8c0 3.5-2.4 5.7-5.7 5.7A5.5 5.5 0 0 1 5 15.5c0-3.4 2.8-5.8 6.4-5.3v3.6c-1.6-.5-2.9.4-2.9 1.7 0 1.1.9 2 2 2 1.3 0 2.1-.8 2.1-2.4V3h3.6Z" fill="currentColor"/>
  </symbol>
  <symbol id="icon-whatsapp" viewBox="0 0 24 24">
    <path d="M12.1 3A8.7 8.7 0 0 0 4.6 16l-1 4.1 4.2-1a8.7 8.7 0 1 0 4.3-16Zm0 15.7a7 7 0 0 1-3.6-1l-.3-.2-2.5.6.7-2.4-.2-.4a7 7 0 1 1 5.9 3.4Zm4-5.2c-.2-.1-1.2-.6-1.4-.7-.2 0-.4-.1-.5.1l-.7.8c-.1.2-.3.2-.5.1a5.7 5.7 0 0 1-2.8-2.5c-.2-.3 0-.4.1-.6l.4-.5c.1-.2.1-.3.2-.5 0-.2 0-.3-.1-.5l-.7-1.6c-.2-.4-.3-.4-.5-.4h-.5c-.2 0-.5.1-.7.3-.8.8-1 2.1.2 3.9a9 9 0 0 0 3.8 3.4c1.4.6 2 .6 2.7.5.8-.1 1.8-.8 2-1.5.2-.8.2-1.4.1-1.5l-.6-.3Z" fill="currentColor"/>
  </symbol>
  <symbol id="icon-phone" viewBox="0 0 24 24">
    <path d="M6.6 4.5 9 4a1.4 1.4 0 0 1 1.5.8l1.1 2.6a1.4 1.4 0 0 1-.4 1.6l-1.3 1a11 11 0 0 0 4.1 4.1l1-1.3a1.4 1.4 0 0 1 1.6-.4l2.6 1.1a1.4 1.4 0 0 1 .8 1.5l-.5 2.4a2.6 2.6 0 0 1-2.6 2.1A14.5 14.5 0 0 1 4.5 7.1a2.6 2.6 0 0 1 2.1-2.6Z" fill="none" stroke="currentColor" stroke-width="1.8" stroke-linecap="round" stroke-linejoin="round"/>
  </symbol>
  <symbol id="icon-mail" viewBox="0 0 24 24">
    <path d="M4.5 6.5h15v11h-15v-11Z" fill="none" stroke="currentColor" stroke-width="1.8" stroke-linejoin="round"/>
    <path d="m5 7 7 6 7-6" fill="none" stroke="currentColor" stroke-width="1.8" stroke-linecap="round" stroke-linejoin="round"/>
  </symbol>
  <symbol id="icon-location" viewBox="0 0 24 24">
    <path d="M12 21s7-5.4 7-11a7 7 0 1 0-14 0c0 5.6 7 11 7 11Z" fill="none" stroke="currentColor" stroke-width="1.8"/>
    <circle cx="12" cy="10" r="2.4" fill="none" stroke="currentColor" stroke-width="1.8"/>
  </symbol>
  <symbol id="icon-camera" viewBox="0 0 24 24">
    <path d="M4 8h3.2L9 5.5h6L16.8 8H20v11H4V8Z" fill="none" stroke="currentColor" stroke-width="1.8" stroke-linejoin="round"/>
    <circle cx="12" cy="13.5" r="3.2" fill="none" stroke="currentColor" stroke-width="1.8"/>
  </symbol>
  <symbol id="icon-arrow" viewBox="0 0 24 24">
    <path d="M5 12h13M13 6l6 6-6 6" fill="none" stroke="currentColor" stroke-width="1.8" stroke-linecap="round" stroke-linejoin="round"/>
  </symbol>
</svg>
